<?xml version="1.0" encoding="UTF-8"?>
<svg version="1.1" xmlns="http://www.w3.org/2000/svg" width="870" height="349">
<path d="M0 0 C9.57 0 19.14 0 29 0 C33.18997469 8.3324978 37.34811116 16.67500249 41.39453125 25.078125 C41.75787567 25.83170288 42.12122009 26.58528076 42.49557495 27.36169434 C43.98296688 30.44773348 45.46946184 33.53417751 46.94995117 36.62353516 C48.05258114 38.92279756 49.16060167 41.21939569 50.26953125 43.515625 C50.60080521 44.21036926 50.93207916 44.90511353 51.27339172 45.62091064 C52.91497896 49.00944083 54.59608502 52.09250908 57 55 C59.14060977 50.69511963 61.2633779 46.38166004 63.375 42.0625 C63.6916864 41.41583374 64.0083728 40.76916748 64.33465576 40.10290527 C69.38120357 29.76050271 73.87078156 19.3346675 77.80224609 8.50805664 C78.35259521 7.04227173 78.35259521 7.04227173 78.9140625 5.546875 C79.2229541 4.68932617 79.5318457 3.83177734 79.85009766 2.94824219 C81 1 81 1 82.7800293 0.22412109 C85.40297157 -0.04068271 87.96822589 -0.12977145 90.60546875 -0.1328125 C91.67087891 -0.13410156 92.73628906 -0.13539063 93.83398438 -0.13671875 C94.94064453 -0.13285156 96.04730469 -0.12898437 97.1875 -0.125 C98.30576172 -0.12886719 99.42402344 -0.13273438 100.57617188 -0.13671875 C102.16848633 -0.13478516 102.16848633 -0.13478516 103.79296875 -0.1328125 C104.7677417 -0.13168457 105.74251465 -0.13055664 106.74682617 -0.12939453 C109 0 109 0 110 1 C110.04092937 3.33297433 110.04241723 5.66705225 110 8 C107.36 8.33 104.72 8.66 102 9 C102 31.11 102 53.22 102 76 C104.31 76.66 106.62 77.32 109 78 C109 80.31 109 82.62 109 85 C104.17619198 85.0246519 99.35242033 85.04283693 94.52856445 85.05493164 C92.88630536 85.05997174 91.24405077 85.06680378 89.60180664 85.07543945 C87.24624521 85.08751926 84.89074291 85.09323139 82.53515625 85.09765625 C81.79660904 85.10281754 81.05806183 85.10797882 80.2971344 85.11329651 C78.53101912 85.1134925 76.76502854 85.06194719 75 85 C74 84 74 84 73.9375 81.4375 C73.958125 80.633125 73.97875 79.82875 74 79 C79.75 77 79.75 77 82 77 C82 59.84 82 42.68 82 25 C79.03 31.55875 76.06 38.1175 73 44.875 C71.62134766 47.91823486 71.62134766 47.91823486 70.21484375 51.02294922 C65.09652155 62.3281163 60.02253358 73.65195014 55 85 C53.02 85 51.04 85 49 85 C48.64397705 84.22736816 48.2879541 83.45473633 47.92114258 82.65869141 C46.22247315 78.97882957 44.51916923 75.30115737 42.8125 71.625 C42.50197693 70.95593628 42.19145386 70.28687256 41.871521 69.59753418 C36.75544662 58.59240367 31.43643662 47.7076077 25.91333008 36.90087891 C25.39794678 35.88687012 24.88256348 34.87286133 24.3515625 33.828125 C23.89604004 32.9402832 23.44051758 32.05244141 22.97119141 31.13769531 C22 29 22 29 22 27 C21.34 27 20.68 27 20 27 C20.33 27.99 20.66 28.98 21 30 C21.08121327 31.41145173 21.10755167 32.82648275 21.09765625 34.24023438 C21.09435303 35.09121704 21.0910498 35.94219971 21.08764648 36.81896973 C21.07934814 37.73464722 21.0710498 38.65032471 21.0625 39.59375 C21.05871338 40.53682007 21.05492676 41.47989014 21.05102539 42.45153809 C21.03465285 46.49004358 21.0064966 50.52844841 20.97949219 54.56689453 C20.96145368 57.51334163 20.94933072 60.45977251 20.9375 63.40625 C20.92920166 64.32192749 20.92090332 65.23760498 20.91235352 66.18103027 C20.90905029 67.03201294 20.90574707 67.88299561 20.90234375 68.75976562 C20.89710693 69.50794556 20.89187012 70.25612549 20.88647461 71.02697754 C20.92611614 73.21369776 20.92611614 73.21369776 22 76 C25.51190809 77.22969878 25.51190809 77.22969878 29 78 C30.125 82.75 30.125 82.75 29 85 C20.09 84.67 11.18 84.34 2 84 C2 82.02 2 80.04 2 78 C3.7015625 77.5978125 3.7015625 77.5978125 5.4375 77.1875 C7.2009375 76.5996875 7.2009375 76.5996875 9 76 C10.03189987 72.9043004 10.20043082 70.5628708 10.31640625 67.3125 C10.35862305 66.15121582 10.40083984 64.98993164 10.44433594 63.79345703 C10.50282715 61.9156958 10.50282715 61.9156958 10.5625 60 C10.6027832 58.71593262 10.64306641 57.43186523 10.68457031 56.10888672 C10.8020737 52.07279344 10.90608064 48.0366958 11 44 C11.03013184 42.71383789 11.06026367 41.42767578 11.09130859 40.10253906 C11.16547623 36.4432875 11.21327027 32.78480118 11.25 29.125 C11.2713501 28.00996094 11.2927002 26.89492187 11.31469727 25.74609375 C11.33996222 19.77070311 11.18014549 15.1579541 8 10 C5.30375395 8.52041565 3.10236204 8.45772555 0 8 C0 5.36 0 2.72 0 0 Z " fill="#FEFEFE" transform="translate(183,188)"/>
<path d="M0 0 C1.51815699 0.00015911 3.0363194 0.00585313 4.55444336 0.01586914 C5.35208603 0.01728409 6.1497287 0.01869904 6.97154236 0.02015686 C9.52916146 0.02577223 12.08669429 0.03832727 14.64428711 0.05102539 C16.37410356 0.05603841 18.10392137 0.06060166 19.83374023 0.06469727 C24.08312264 0.07574664 28.33244023 0.09302153 32.58178711 0.11352539 C32.58178711 2.42352539 32.58178711 4.73352539 32.58178711 7.11352539 C29.94178711 7.44352539 27.30178711 7.77352539 24.58178711 8.11352539 C24.25178711 17.02352539 23.92178711 25.93352539 23.58178711 35.11352539 C35.46178711 35.11352539 47.34178711 35.11352539 59.58178711 35.11352539 C59.25178711 26.20352539 58.92178711 17.29352539 58.58178711 8.11352539 C55.61178711 7.78352539 52.64178711 7.45352539 49.58178711 7.11352539 C49.53924355 5.11397793 49.54097928 3.11310903 49.58178711 1.11352539 C50.58178711 0.11352539 50.58178711 0.11352539 54.09179688 0 C55.65227133 0.00015913 57.21275104 0.00585397 58.77319336 0.01586914 C59.59303207 0.01728409 60.41287079 0.01869904 61.2575531 0.02015686 C63.88650093 0.0257725 66.51536484 0.0383276 69.14428711 0.05102539 C70.92228067 0.05603838 72.70027557 0.06060163 74.47827148 0.06469727 C78.84614256 0.07574701 83.21395059 0.09302208 87.58178711 0.11352539 C87.25178711 2.42352539 86.92178711 4.73352539 86.58178711 7.11352539 C83.94178711 7.44352539 81.30178711 7.77352539 78.58178711 8.11352539 C78.58178711 30.88352539 78.58178711 53.65352539 78.58178711 77.11352539 C81.55178711 77.44352539 84.52178711 77.77352539 87.58178711 78.11352539 C87.58178711 80.09352539 87.58178711 82.07352539 87.58178711 84.11352539 C75.04178711 84.11352539 62.50178711 84.11352539 49.58178711 84.11352539 C49.58178711 82.13352539 49.58178711 80.15352539 49.58178711 78.11352539 C54.03678711 77.61852539 54.03678711 77.61852539 58.58178711 77.11352539 C58.91178711 66.88352539 59.24178711 56.65352539 59.58178711 46.11352539 C49.60461321 46.48121986 49.60461321 46.48121986 39.62792969 46.86181641 C38.38164795 46.90491943 37.13536621 46.94802246 35.85131836 46.99243164 C34.57877197 47.03956299 33.30622559 47.08669434 31.99511719 47.13525391 C28.58178711 47.11352539 28.58178711 47.11352539 23.58178711 46.11352539 C24.07678711 61.45852539 24.07678711 61.45852539 24.58178711 77.11352539 C27.22178711 77.44352539 29.86178711 77.77352539 32.58178711 78.11352539 C32.58178711 80.09352539 32.58178711 82.07352539 32.58178711 84.11352539 C20.70178711 84.11352539 8.82178711 84.11352539 -3.41821289 84.11352539 C-3.41821289 82.13352539 -3.41821289 80.15352539 -3.41821289 78.11352539 C0.04678711 77.12352539 0.04678711 77.12352539 3.58178711 76.11352539 C3.58178711 54.00352539 3.58178711 31.89352539 3.58178711 9.11352539 C0.94178711 8.45352539 -1.69821289 7.79352539 -4.41821289 7.11352539 C-4.46075645 5.11397793 -4.45902072 3.11310903 -4.41821289 1.11352539 C-3.41821289 0.11352539 -3.41821289 0.11352539 0 0 Z " fill="#FEFEFE" transform="translate(411.418212890625,67.886474609375)"/>
<path d="M0 0 C12.33112009 -0.56461173 24.06487377 2.98847243 33.6328125 10.65234375 C41.84082108 18.26495274 45.54463959 28.67420666 46.22265625 39.62109375 C46.59064749 54.10522883 43.68935036 66.09636835 33.7578125 76.96484375 C25.01441521 85.16661466 13.94176978 87.5472027 2.3203125 87.52734375 C1.34513672 87.52573242 0.36996094 87.52412109 -0.63476562 87.52246094 C-12.02205722 87.32900595 -20.83807583 84.53719146 -29.4921875 76.96484375 C-39.33110262 65.89606423 -41.9921875 54.8541047 -41.9921875 40.15234375 C-40.95527068 27.33669995 -35.42814785 16.44124029 -25.6875 8.05078125 C-17.90470217 2.56898452 -9.27918361 0.70958463 0 0 Z M-14.3046875 18.46484375 C-22.36436319 28.69274742 -21.91062983 41.7496185 -20.9921875 54.15234375 C-19.63774533 61.55146782 -17.00708153 68.36443476 -10.9921875 73.15234375 C-5.6816223 76.45297333 -0.27712229 78.27173844 6.0078125 77.15234375 C12.66887754 75.49484701 17.02860097 73.08202599 20.828125 67.296875 C27.39347178 55.36185718 27.71222138 40.89782558 24.046875 27.94921875 C21.83701186 22.00086532 18.87493373 16.94049163 13.3203125 13.65234375 C3.15656654 9.04989275 -6.61826558 10.0796562 -14.3046875 18.46484375 Z " fill="#FEFEFE" transform="translate(347.9921875,186.84765625)"/>
<path d="M0 0 C22.11 0 44.22 0 67 0 C66.67 7.26 66.34 14.52 66 22 C63.69 22 61.38 22 59 22 C58.34 18.7 57.68 15.4 57 12 C50.16508881 10.21941801 43.97925176 9.74860528 36.9375 9.875 C32.0184375 9.936875 32.0184375 9.936875 27 10 C27 18.91 27 27.82 27 37 C32.61 37 38.22 37 44 37 C44.33 34.03 44.66 31.06 45 28 C46.66611905 27.957279 48.33382885 27.95936168 50 28 C51 29 51 29 51.11352539 31.40844727 C51.10828857 32.45057373 51.10305176 33.4927002 51.09765625 34.56640625 C51.09443359 35.69111328 51.09121094 36.81582031 51.08789062 37.97460938 C51.07532227 39.75061523 51.07532227 39.75061523 51.0625 41.5625 C51.05798828 42.75037109 51.05347656 43.93824219 51.04882812 45.16210938 C51.03699675 48.10812226 51.02051287 51.05403681 51 54 C48.03 54.495 48.03 54.495 45 55 C44.03087958 51.72921858 44 49.60964568 44 46 C38.39 46 32.78 46 27 46 C27.33 54.91 27.66 63.82 28 73 C38.38572789 75.07714558 49.46016282 76.72390231 59 71 C61.57395151 68.33729155 62.74964485 65.46252195 64 62 C67.465 61.505 67.465 61.505 71 61 C70.6893306 63.70855454 70.37652255 66.41683388 70.0625 69.125 C69.97548828 69.88554687 69.88847656 70.64609375 69.79882812 71.4296875 C69.71181641 72.17734375 69.62480469 72.925 69.53515625 73.6953125 C69.456604 74.37609863 69.37805176 75.05688477 69.29711914 75.75830078 C68.93170915 78.51523958 68.45720171 81.25678973 68 84 C45.23 84 22.46 84 -1 84 C-1 82.02 -1 80.04 -1 78 C2.96 77.01 2.96 77.01 7 76 C7.33 53.56 7.66 31.12 8 8 C5.36 7.67 2.72 7.34 0 7 C-1 5 -1 5 0 0 Z " fill="#FEFEFE" transform="translate(160,68)"/>
<path d="M0 0 C22.44 0 44.88 0 68 0 C67.67 7.26 67.34 14.52 67 22 C64.69 22 62.38 22 60 22 C59.88785156 21.38511719 59.77570312 20.77023438 59.66015625 20.13671875 C59.36431641 18.92435547 59.36431641 18.92435547 59.0625 17.6875 C58.88847656 16.88699219 58.71445312 16.08648437 58.53515625 15.26171875 C55.98986102 11.51177998 52.29943739 10.8961656 48 10 C44.31001525 9.5591213 40.65080423 9.40362946 36.9375 9.3125 C33.658125 9.209375 30.37875 9.10625 27 9 C27 18.24 27 27.48 27 37 C32.61 37 38.22 37 44 37 C44.33 34.36 44.66 31.72 45 29 C45.495 28.505 45.495 28.505 46 28 C47.65 28 49.3 28 51 28 C51 36.58 51 45.16 51 54 C49.02 54 47.04 54 45 54 C44.505 50.04 44.505 50.04 44 46 C43.03900391 46.01740234 43.03900391 46.01740234 42.05859375 46.03515625 C41.19363281 46.04417969 40.32867188 46.05320313 39.4375 46.0625 C38.59058594 46.07410156 37.74367188 46.08570313 36.87109375 46.09765625 C33.56236204 45.98511435 30.27737148 45.46819593 27 45 C27.495 59.355 27.495 59.355 28 74 C44.90993182 75.63405501 44.90993182 75.63405501 61 71 C62.23634658 68.85401498 62.23634658 68.85401498 62.8125 66.375 C63.04582031 65.55773437 63.27914062 64.74046875 63.51953125 63.8984375 C63.67808594 63.27195313 63.83664062 62.64546875 64 62 C66.31 62 68.62 62 71 62 C70.69088746 64.91706203 70.37784575 67.8336109 70.0625 70.75 C69.97548828 71.575 69.88847656 72.4 69.79882812 73.25 C69.71181641 74.04921875 69.62480469 74.8484375 69.53515625 75.671875 C69.456604 76.4050293 69.37805176 77.13818359 69.29711914 77.89355469 C69 80 69 80 68 84 C45.56 84 23.12 84 0 84 C0 81.69 0 79.38 0 77 C3.465 76.505 3.465 76.505 7 76 C7.79207686 71.81915435 8.12220437 67.88014108 8.11352539 63.62744141 C8.11344986 62.38660797 8.11337433 61.14577454 8.11329651 59.86734009 C8.10819113 58.52874714 8.10297515 57.19015461 8.09765625 55.8515625 C8.09578906 54.47008312 8.09436658 53.08860308 8.09336853 51.7071228 C8.08956702 48.08711897 8.07975716 44.46715583 8.06866455 40.84716797 C8.05839935 37.14681549 8.05386 33.44645639 8.04882812 29.74609375 C8.03813258 22.49737736 8.02108485 15.2486944 8 8 C5.36 7.67 2.72 7.34 0 7 C0 4.69 0 2.38 0 0 Z " fill="#FEFEFE" transform="translate(514,68)"/>
<path d="M0 0 C0.02887512 3.64581687 0.04675585 7.29160463 0.0625 10.9375 C0.07087891 11.97841797 0.07925781 13.01933594 0.08789062 14.09179688 C0.09111328 15.08115234 0.09433594 16.07050781 0.09765625 17.08984375 C0.10289307 18.00628662 0.10812988 18.92272949 0.11352539 19.86694336 C0 22 0 22 -1 23 C-2.99958364 23.04080783 -5.00045254 23.04254356 -7 23 C-7.66 19.7 -8.32 16.4 -9 13 C-16.35428571 10.30940767 -23.69148161 9.81863859 -31.4375 9.4375 C-34.263125 9.293125 -37.08875 9.14875 -40 9 C-40 18.57 -40 28.14 -40 38 C-36.0709375 37.7834375 -36.0709375 37.7834375 -32.0625 37.5625 C-31.2362915 37.51939697 -30.41008301 37.47629395 -29.55883789 37.43188477 C-25.97955708 37.53795177 -25.97955708 37.53795177 -23 36 C-22.835 34.845 -22.67 33.69 -22.5 32.5 C-22 29 -22 29 -21 28 C-18.5 27.875 -18.5 27.875 -16 28 C-15 29 -15 29 -14.88647461 31.40844727 C-14.89171143 32.45057373 -14.89694824 33.4927002 -14.90234375 34.56640625 C-14.90556641 35.69111328 -14.90878906 36.81582031 -14.91210938 37.97460938 C-14.92467773 39.75061523 -14.92467773 39.75061523 -14.9375 41.5625 C-14.94201172 42.75037109 -14.94652344 43.93824219 -14.95117188 45.16210938 C-14.96300325 48.10812226 -14.97948713 51.05403681 -15 54 C-17.31 54 -19.62 54 -22 54 C-22.66 51.69 -23.32 49.38 -24 47 C-29.28 46.67 -34.56 46.34 -40 46 C-39.67 55.24 -39.34 64.48 -39 74 C-28.8142397 75.45510861 -16.18166874 76.91876167 -7 71 C-5.66653971 68.84255767 -5.66653971 68.84255767 -4.75 66.375 C-4.41484375 65.55773437 -4.0796875 64.74046875 -3.734375 63.8984375 C-3.49203125 63.27195313 -3.2496875 62.64546875 -3 62 C-0.69 62 1.62 62 4 62 C3.71638858 64.70939422 3.4233895 67.41722661 3.125 70.125 C3.04636719 70.88554687 2.96773437 71.64609375 2.88671875 72.4296875 C2.76103516 73.55117188 2.76103516 73.55117188 2.6328125 74.6953125 C2.55949707 75.37609863 2.48618164 76.05688477 2.41064453 76.75830078 C1.89489065 79.57378958 0.90515077 82.28454768 0 85 C-22.11 85 -44.22 85 -67 85 C-67 82.69 -67 80.38 -67 78 C-63.535 77.01 -63.535 77.01 -60 76 C-58.92906301 72.51404259 -58.87931805 69.30643269 -58.88647461 65.67089844 C-58.88658791 63.74935944 -58.88658791 63.74935944 -58.88670349 61.78900146 C-58.89180974 60.39579225 -58.89702573 59.00258343 -58.90234375 57.609375 C-58.90420968 56.18019663 -58.90563276 54.75101762 -58.90663147 53.32183838 C-58.91044285 49.56699852 -58.92026133 45.81219757 -58.93133545 42.05737305 C-58.94157925 38.22314988 -58.94613545 34.38892041 -58.95117188 30.5546875 C-58.96188486 23.03644063 -58.97894469 15.51822577 -59 8 C-61.64 8 -64.28 8 -67 8 C-67 5.69 -67 3.38 -67 1 C-58.85490887 0.86924128 -50.70981234 0.73882607 -42.56470871 0.60884857 C-38.78255699 0.54848318 -35.00040723 0.48799976 -31.21826172 0.42724609 C-27.56783736 0.36861265 -23.91740816 0.31028993 -20.2669754 0.25218201 C-18.87473626 0.22996572 -17.48249889 0.20763775 -16.09026337 0.18519592 C-14.13928189 0.15376665 -12.18829342 0.12277237 -10.23730469 0.09179688 C-9.1269989 0.07403198 -8.01669312 0.05626709 -6.8727417 0.03796387 C-4.58199287 0.00769115 -2.29094885 0 0 0 Z " fill="#FEFEFE" transform="translate(616,188)"/>
<path d="M0 0 C2.31640625 1.60546875 2.31640625 1.60546875 4 3 C3.34 3 2.68 3 2 3 C2 9.27 2 15.54 2 22 C-0.31 22 -2.62 22 -5 22 C-5.2475 20.783125 -5.495 19.56625 -5.75 18.3125 C-6.78313075 14.3416233 -7.82682938 11.76635387 -11 9 C-16.82046156 6.66246524 -22.95069367 6.45356079 -29 8 C-33.2194336 9.99464134 -34.62662289 11.14434413 -36.5 15.4375 C-37.04154667 19.29602005 -37.10429318 20.75588135 -35 24 C-29.14482385 28.83359453 -22.63386205 29.57592609 -15.31835938 30.890625 C-8.098407 32.34157207 -1.29027266 34.79687556 3.40356445 40.79296875 C7.07938601 46.93488925 7.71504792 52.9866533 7 60 C4.77137471 68.63736642 1.80364113 74.37124131 -5.8125 79.1875 C-16.40921554 85.22066651 -29.23009691 86.58868646 -41.04736328 83.45751953 C-45.74472492 82.09269638 -50.35488786 80.54837071 -55 79 C-55 72.4 -55 65.8 -55 59 C-55.66 58.67 -56.32 58.34 -57 58 C-54.04335481 56.5216774 -51.25770263 56.93967217 -48 57 C-47.64808594 57.81984375 -47.29617187 58.6396875 -46.93359375 59.484375 C-43.57785156 67.40655886 -43.57785156 67.40655886 -37.04296875 72.453125 C-29.37018381 74.50702537 -22.17723248 74.76804705 -15 71 C-11.4085407 67.8606125 -10.18108111 64.73837865 -9.6875 60 C-10.05345757 56.48680733 -10.92931104 54.84265634 -13 52 C-15.20294039 50.64928106 -15.20294039 50.64928106 -17.8125 49.875 C-18.78703125 49.55015625 -19.7615625 49.2253125 -20.765625 48.890625 C-24.17853147 47.95083916 -27.58402716 47.27816302 -31.0625 46.625 C-39.30359701 44.93521366 -46.27310478 42.1488053 -51.0625 34.9375 C-54.57123644 28.41421535 -54.93894496 21.69648481 -52.9375 14.5625 C-50.75854333 8.62357624 -47.18956652 3.8610287 -41.68359375 0.6484375 C-29.31349436 -5.01694575 -12.6056123 -5.09677835 0 0 Z " fill="#FEFEFE" transform="translate(298,70)"/>
<path d="M0 0 C4.95 0 9.9 0 15 0 C15.30260742 0.96945557 15.60521484 1.93891113 15.91699219 2.93774414 C20.43234245 17.07611069 25.94942651 30.79654227 31.49377441 44.55700684 C32.51396646 47.09390087 33.52761728 49.63338742 34.54127884 52.17289639 C35.75829609 55.21957305 36.98085101 58.26402296 38.203125 61.30859375 C38.65520325 62.43970078 39.10728149 63.5708078 39.57305908 64.7361908 C39.99399841 65.77900711 40.41493774 66.82182343 40.84863281 67.89624023 C41.216922 68.8123558 41.58521118 69.72847137 41.96466064 70.67234802 C43.0087029 73.19578158 43.0087029 73.19578158 45 76 C48.55672179 77.2188121 48.55672179 77.2188121 52 78 C52 79.98 52 81.96 52 84 C40.12 84.33 28.24 84.66 16 85 C14.61842105 80.85526316 14.61842105 80.85526316 16 78 C19.0625 76.75 19.0625 76.75 22 76 C20.62019877 70.16237943 18.91060547 64.73181642 17 59 C7.76 59.33 -1.48 59.66 -11 60 C-15.75189803 71.45756887 -15.75189803 71.45756887 -14 77 C-12.02 77.33 -10.04 77.66 -8 78 C-8 79.98 -8 81.96 -8 84 C-17.57 84 -27.14 84 -37 84 C-36.67 82.02 -36.34 80.04 -36 78 C-34.93652344 77.87625 -33.87304688 77.7525 -32.77734375 77.625 C-30.2588087 76.88176356 -29.24327076 76.35446675 -27.74267578 74.16796875 C-26.54427704 71.4828431 -25.53808684 68.77413871 -24.5625 66 C-24.16345459 64.93652344 -23.76440918 63.87304688 -23.35327148 62.77734375 C-22.42924384 60.31190489 -21.51603003 57.84424314 -20.61328125 55.37109375 C-18.76456893 50.33095705 -16.83480253 45.32251348 -14.90625 40.3125 C-12.07354823 32.9417005 -9.24508988 25.56939469 -6.44140625 18.1875 C-6.1386377 17.39448486 -5.83586914 16.60146973 -5.52392578 15.78442383 C-3.54517354 10.56399193 -1.73666785 5.30602679 0 0 Z M2 23 C0.57157089 26.66452852 -0.85247676 30.33072569 -2.27246094 33.99853516 C-2.99441847 35.86060415 -3.71985238 37.72132407 -4.4453125 39.58203125 C-4.89648438 40.74863281 -5.34765625 41.91523437 -5.8125 43.1171875 C-6.23144531 44.19597168 -6.65039062 45.27475586 -7.08203125 46.38623047 C-8.11045434 48.85278758 -8.11045434 48.85278758 -8 51 C-0.74 51 6.52 51 14 51 C10.71041755 41.43726031 7.44146766 32.09911295 3 23 C2.67 23 2.34 23 2 23 Z " fill="#FEFEFE" transform="translate(98,68)"/>
<path d="M0 0 C-0.13857841 3.12536637 -0.28709569 6.25018217 -0.4375 9.375 C-0.47681641 10.26445312 -0.51613281 11.15390625 -0.55664062 12.0703125 C-0.61948242 13.34648437 -0.61948242 13.34648437 -0.68359375 14.6484375 C-0.72025146 15.43395996 -0.75690918 16.21948242 -0.79467773 17.02880859 C-1 19 -1 19 -2 21 C-3.65 21 -5.3 21 -7 21 C-7.34611328 19.98679688 -7.34611328 19.98679688 -7.69921875 18.953125 C-10.28557406 11.81014868 -10.28557406 11.81014868 -16 7 C-21.53939386 5.31409752 -27.46589128 5.11899731 -32.875 7.3125 C-36.46776141 9.11442138 -36.46776141 9.11442138 -39 12 C-39.97157915 15.74751957 -40.33288638 18.08456245 -39 21.75 C-33.7125025 27.69843468 -24.26372326 28.40312705 -16.82617188 29.84179688 C-9.86070731 31.34988804 -4.03434537 33.9385348 0.33935547 39.79272461 C4.15275452 46.15545469 4.8965189 52.21350077 3.5390625 59.4609375 C1.71366358 66.44040394 -1.16804283 72.30114845 -7.1796875 76.53515625 C-19.4079848 83.59627742 -31.36660541 83.88369697 -45 81 C-49.06556755 79.82629609 -53.04135597 78.49355434 -57 77 C-56.91621094 76.23816406 -56.83242188 75.47632813 -56.74609375 74.69140625 C-56.10881725 68.22990652 -56.03678972 62.42140189 -57 56 C-52.25 55 -52.25 55 -50 55 C-49.64808594 55.81984375 -49.29617188 56.6396875 -48.93359375 57.484375 C-45.31920213 65.37375201 -43.11888586 68.7054178 -35 71.75 C-28.44413068 72.56948367 -22.9738925 71.75993834 -17 69 C-14.10975351 66.56135453 -13.97226269 64.87716334 -13.125 61.125 C-12.78667711 56.89202986 -13.28248666 54.41630249 -16 51 C-20.99954284 47.95123827 -26.66537122 46.81693993 -32.32275391 45.60742188 C-40.82084869 43.77700599 -48.20682193 42.12664684 -53.64453125 34.77734375 C-57.55079253 27.98712098 -58.20836372 21.34078315 -56.48828125 13.73828125 C-54.25652351 6.96560604 -50.59024117 2.62849084 -44.375 -0.75 C-29.82203588 -7.39421042 -14.67235563 -5.31965676 0 0 Z " fill="#FEFEFE" transform="translate(689,192)"/>
<path d="M0 0 C0.02887814 3.47914941 0.04675687 6.95826831 0.0625 10.4375 C0.07087891 11.43072266 0.07925781 12.42394531 0.08789062 13.44726562 C0.09111328 14.39150391 0.09433594 15.33574219 0.09765625 16.30859375 C0.10289307 17.18314209 0.10812988 18.05769043 0.11352539 18.95874023 C0 21 0 21 -1 22 C-2.99958364 22.04080783 -5.00045254 22.04254356 -7 22 C-7.17015625 21.31292969 -7.3403125 20.62585938 -7.515625 19.91796875 C-7.75796875 19.01691406 -8.0003125 18.11585937 -8.25 17.1875 C-8.48203125 16.29417969 -8.7140625 15.40085937 -8.953125 14.48046875 C-10.18067609 11.57190554 -11.32443233 10.61239483 -14 9 C-22.08051025 5.73341075 -31.46999541 5.66672895 -39.5625 8.875 C-41.05508919 9.55459373 -42.53582665 10.26117219 -44 11 C-45.06541016 11.43699219 -45.06541016 11.43699219 -46.15234375 11.8828125 C-48.49915028 13.3018118 -48.98399606 14.47579466 -50 17 C-50.34160156 17.79277344 -50.68320312 18.58554688 -51.03515625 19.40234375 C-51.37417969 20.23894531 -51.71320312 21.07554688 -52.0625 21.9375 C-52.40410156 22.77152344 -52.74570312 23.60554688 -53.09765625 24.46484375 C-56.90062024 35.14936164 -55.5162864 47.07503633 -50.96875 57.32421875 C-47.44272897 63.57814118 -42.35372723 67.55329414 -35.8125 70.375 C-23.84917016 72.33620161 -13.20844633 71.34589494 -2.84765625 65.0234375 C-1 64 -1 64 1 64 C0.1181258 69.92303564 -0.95917436 75.23373392 -6 79 C-18.50901131 85.78749831 -33.65728624 84.91855467 -47.07421875 81.57714844 C-58.80423204 78.06171342 -66.28628213 70.46809545 -72 60 C-76.99219982 49.80540247 -76.65055385 35.22588555 -73.5 24.5 C-69.01186452 13.21644812 -61.44736687 4.94676804 -50.5625 -0.25 C-34.23287257 -6.96576828 -16.35051574 -5.90965463 0 0 Z " fill="#FEFEFE" transform="translate(809,71)"/>
<path d="M0 0 C1.60293085 0.04234573 3.20571762 0.09037064 4.80834961 0.14282227 C6.07140175 0.17823875 6.07140175 0.17823875 7.35997009 0.21437073 C10.06037467 0.29119796 12.76050607 0.37513964 15.46069336 0.45922852 C17.28685168 0.51243015 19.1130235 0.56517066 20.93920898 0.61743164 C25.42571145 0.74683873 29.91198137 0.8826285 34.39819336 1.02172852 C34.52319336 3.39672852 34.52319336 3.39672852 34.39819336 6.02172852 C31.83273396 8.58718792 29.92132668 8.56218939 26.39819336 9.02172852 C28.72412499 18.71937403 32.11906977 28.03614065 35.49609375 37.40429688 C36.4688494 40.10688831 37.43089191 42.81314143 38.39233398 45.51977539 C39.00953415 47.2407076 39.62735004 48.96141913 40.24584961 50.68188477 C40.53234879 51.49013199 40.81884796 52.29837921 41.11402893 53.13111877 C42.63444657 57.44712692 42.63444657 57.44712692 45.39819336 61.02172852 C50.31102406 48.51890885 55.19796532 36.01389128 59.46069336 23.27172852 C59.89007202 21.99809448 59.89007202 21.99809448 60.328125 20.69873047 C61.71265987 16.48713485 62.82145971 12.43623296 63.39819336 8.02172852 C60.75819336 7.69172852 58.11819336 7.36172852 55.39819336 7.02172852 C55.39819336 5.04172852 55.39819336 3.06172852 55.39819336 1.02172852 C58.03816985 -0.29825973 60.03896653 -0.10783181 62.99194336 -0.11108398 C64.66063477 -0.11301758 64.66063477 -0.11301758 66.36303711 -0.11499023 C67.52963867 -0.11112305 68.69624023 -0.10725586 69.89819336 -0.10327148 C71.06479492 -0.10713867 72.23139648 -0.11100586 73.43334961 -0.11499023 C74.54581055 -0.11370117 75.65827148 -0.11241211 76.80444336 -0.11108398 C77.82860352 -0.10995605 78.85276367 -0.10882813 79.90795898 -0.10766602 C82.39819336 0.02172852 82.39819336 0.02172852 84.39819336 1.02172852 C84.39819336 3.33172852 84.39819336 5.64172852 84.39819336 8.02172852 C83.1800293 8.29243164 81.96186523 8.56313477 80.70678711 8.84204102 C76.83216362 10.32789487 75.52371381 11.88811967 73.80834961 15.63891602 C72.99514069 17.71309399 72.21519319 19.80048115 71.46069336 21.89672852 C71.02321777 23.03609863 70.58574219 24.17546875 70.13500977 25.34936523 C69.12160592 27.99078967 68.12931899 30.63909134 67.1496582 33.29321289 C65.1146866 38.80335365 63.03090287 44.29481841 60.94897461 49.78735352 C58.61233627 55.95362075 56.27989446 62.12124551 53.97265625 68.29858398 C53.61112961 69.26431335 53.24960297 70.23004272 52.87712097 71.22503662 C52.18999709 73.06164383 51.50502829 74.8990591 50.82246399 76.73736572 C50.51729355 77.55195251 50.21212311 78.36653931 49.89770508 79.20581055 C49.63110077 79.92157257 49.36449646 80.63733459 49.08981323 81.37478638 C48.39819336 83.02172852 48.39819336 83.02172852 47.39819336 84.02172852 C45.04505781 84.09444593 42.68985667 84.10543719 40.33569336 84.08422852 C38.40016602 84.07069336 38.40016602 84.07069336 36.42553711 84.05688477 C35.42651367 84.0452832 34.42749023 84.03368164 33.39819336 84.02172852 C30.3159519 76.94975168 27.53748915 69.79986228 24.90991211 62.54907227 C24.60038605 61.69495758 24.29085999 60.8408429 23.97195435 59.96084595 C22.68919854 56.41299952 21.41040053 52.86375202 20.13574219 49.31298828 C16.64363228 39.5986717 13.0561058 29.93915238 9.10522461 20.40063477 C8.77858322 19.60044418 8.45194183 18.8002536 8.11540222 17.97581482 C7.80371597 17.23630081 7.49202972 16.4967868 7.17089844 15.73486328 C6.90038162 15.08783951 6.62986481 14.44081573 6.35115051 13.77418518 C4.36886793 10.12883312 2.70165547 9.1194536 -1.28930664 7.83422852 C-2.38243164 7.56610352 -3.47555664 7.29797852 -4.60180664 7.02172852 C-4.6443502 5.02218106 -4.64261447 3.02131215 -4.60180664 1.02172852 C-3.60180664 0.02172852 -3.60180664 0.02172852 0 0 Z " fill="#FEFEFE" transform="translate(400.601806640625,187.978271484375)"/>
<path d="M0 0 C26.07 0 52.14 0 79 0 C78.67 7.26 78.34 14.52 78 22 C76.02 22 74.04 22 72 22 C71.01 18.7 70.02 15.4 69 12 C67.535625 11.690625 66.07125 11.38125 64.5625 11.0625 C63.73878906 10.88847656 62.91507813 10.71445313 62.06640625 10.53515625 C58.07222089 9.83808186 54.02975788 9.44775088 50 9 C50.33 31.11 50.66 53.22 51 76 C53.97 76.99 56.94 77.98 60 79 C60 80.65 60 82.3 60 84 C47.13 84.33 34.26 84.66 21 85 C21 82.69 21 80.38 21 78 C25.455 77.505 25.455 77.505 30 77 C30.33 54.56 30.66 32.12 31 9 C24.73 9.66 18.46 10.32 12 11 C9.67214625 14.87975626 8.27677281 17.7768284 7 22 C5.02 22 3.04 22 1 22 C0.67 14.74 0.34 7.48 0 0 Z " fill="#FEFEFE" transform="translate(593,68)"/>
<path d="M0 0 C25.74 0 51.48 0 78 0 C78 7.26 78 14.52 78 22 C75.69 22 73.38 22 71 22 C70.87882812 21.37351562 70.75765625 20.74703125 70.6328125 20.1015625 C70.46523438 19.28429687 70.29765625 18.46703125 70.125 17.625 C69.96257812 16.81289062 69.80015625 16.00078125 69.6328125 15.1640625 C69.13341068 12.81326077 69.13341068 12.81326077 67 11 C63.75028168 10.5331364 63.75028168 10.5331364 60.0625 10.375 C58.19271484 10.26285156 58.19271484 10.26285156 56.28515625 10.1484375 C54.19165595 10.05384415 52.09563628 10 50 10 C50 32.11 50 54.22 50 77 C52.64 77.33 55.28 77.66 58 78 C59 79 59 79 59.0625 81.5625 C59.041875 82.366875 59.02125 83.17125 59 84 C55.82709287 85.58645357 52.41174616 85.12078213 48.9296875 85.09765625 C48.13345978 85.0962413 47.33723206 85.09482635 46.51687622 85.09336853 C43.9695462 85.08776345 41.42230353 85.07521014 38.875 85.0625 C37.14974085 85.05748565 35.42448033 85.05292263 33.69921875 85.04882812 C29.46611209 85.03779237 25.23307086 85.02052436 21 85 C21 82.69 21 80.38 21 78 C25.455 77.505 25.455 77.505 30 77 C30 54.89 30 32.78 30 10 C20.1 10.495 20.1 10.495 10 11 C9.01 14.63 8.02 18.26 7 22 C4.69 22 2.38 22 0 22 C0 14.74 0 7.48 0 0 Z " fill="#FEFEFE" transform="translate(317,68)"/>
<path d="M0 0 C0.99 0.33 1.98 0.66 3 1 C4.09658936 4.28976808 3.79953138 5.71303767 3 9 C0.69 9.66 -1.62 10.32 -4 11 C-4.33 33.11 -4.66 55.22 -5 78 C-2.03 78.33 0.94 78.66 4 79 C5 80 5 80 5.0625 82.5625 C5.041875 83.366875 5.02125 84.17125 5 85 C1.77396455 86.61301773 -1.74710038 86.12053599 -5.2890625 86.09765625 C-6.51669815 86.09553383 -6.51669815 86.09553383 -7.76913452 86.09336853 C-10.38779325 86.0877629 -13.00636704 86.07520948 -15.625 86.0625 C-17.39843627 86.05748572 -19.17187387 86.05292269 -20.9453125 86.04882812 C-25.29690782 86.03779164 -29.6484395 86.02052325 -34 86 C-34 83.69 -34 81.38 -34 79 C-29.545 78.505 -29.545 78.505 -25 78 C-24.97687389 69.28155997 -24.95908354 60.56313044 -24.94818783 51.84466648 C-24.94295959 47.79674258 -24.93586301 43.74883959 -24.92456055 39.70092773 C-24.91372957 35.79764029 -24.90772272 31.89437301 -24.90512276 27.9910717 C-24.90326889 26.49866353 -24.899649 25.00625652 -24.89426994 23.51385689 C-24.88705669 21.43051861 -24.88600917 19.34726469 -24.88647461 17.26391602 C-24.88314369 15.48187523 -24.88314369 15.48187523 -24.87974548 13.66383362 C-24.69637405 11.07879307 -24.69637405 11.07879307 -26 10 C-28.32817964 9.63239269 -30.6618385 9.29758419 -33 9 C-33.99435406 5.90645403 -33.87840996 4.09720845 -33 1 C-32.03586182 1.00523682 -31.07172363 1.01047363 -30.07836914 1.01586914 C-26.51327436 1.03392118 -22.94818364 1.04543274 -19.38305664 1.05493164 C-17.83780234 1.0599714 -16.29255284 1.0668032 -14.74731445 1.07543945 C-12.53074971 1.08752076 -10.31424782 1.09323173 -8.09765625 1.09765625 C-7.05545677 1.10539818 -7.05545677 1.10539818 -5.99220276 1.11329651 C-4.3277067 1.11349277 -2.66334501 1.06189129 -1 1 C-0.67 0.67 -0.34 0.34 0 0 Z " fill="#FEFEFE" transform="translate(530,187)"/>
<path d="M0 0 C12.21 0 24.42 0 37 0 C37 2.31 37 4.62 37 7 C34.36 7.33 31.72 7.66 29 8 C29 30.77 29 53.54 29 77 C31.97 77.33 34.94 77.66 38 78 C38 80.31 38 82.62 38 85 C18.695 84.505 18.695 84.505 -1 84 C-0.67 82.02 -0.34 80.04 0 78 C4.455 77.505 4.455 77.505 9 77 C9 54.23 9 31.46 9 8 C6.03 7.67 3.06 7.34 0 7 C0 4.69 0 2.38 0 0 Z " fill="#FEFEFE" transform="translate(683,68)"/>
<path d="" fill="#FEFEFE" transform="translate(0,0)"/>
<path d="M0 0 C0.99 0.495 0.99 0.495 2 1 C1.01 1.495 1.01 1.495 0 2 C0 1.34 0 0.68 0 0 Z " fill="#FFFFFF" transform="translate(542,78)"/>
<path d="" fill="#FFFFFF" transform="translate(0,0)"/>
<path d="M0 0 C2 1 2 1 2 1 Z " fill="#FFFFFF" transform="translate(617,248)"/>
<path d="" fill="#FFFFFF" transform="translate(0,0)"/>
<path d="" fill="#FFFFFF" transform="translate(0,0)"/>
<path d="" fill="#FFFFFF" transform="translate(0,0)"/>
<path d="M0 0 C2 1 2 1 2 1 Z " fill="#FFFFFF" transform="translate(226,128)"/>
<path d="" fill="#FFFFFF" transform="translate(0,0)"/>
<path d="" fill="#FFFFFF" transform="translate(0,0)"/>
<path d="M0 0 C2 1 2 1 2 1 Z " fill="#FFFFFF" transform="translate(456,101)"/>
<path d="" fill="#FFFFFF" transform="translate(0,0)"/>
<path d="M0 0 C2 1 2 1 2 1 Z " fill="#FFFFFF" transform="translate(577,91)"/>
<path d="" fill="#FFFFFF" transform="translate(0,0)"/>
<path d="" fill="#FFFFFF" transform="translate(0,0)"/>
<path d="" fill="#FFFFFF" transform="translate(0,0)"/>
<path d="" fill="#FFFFFF" transform="translate(0,0)"/>
<path d="" fill="#FFFFFF" transform="translate(0,0)"/>
<path d="" fill="#FFFFFF" transform="translate(0,0)"/>
<path d="" fill="#FFFFFF" transform="translate(0,0)"/>
<path d="" fill="#FFFFFF" transform="translate(0,0)"/>
<path d="" fill="#FFFFFF" transform="translate(0,0)"/>
<path d="" fill="#FFFFFF" transform="translate(0,0)"/>
<path d="" fill="#FFFFFF" transform="translate(0,0)"/>
<path d="" fill="#FFFFFF" transform="translate(0,0)"/>
<path d="" fill="#FFFFFF" transform="translate(0,0)"/>
<path d="" fill="#FFFFFF" transform="translate(0,0)"/>
<path d="" fill="#FFFFFF" transform="translate(0,0)"/>
<path d="" fill="#FFFFFF" transform="translate(0,0)"/>
<path d="" fill="#FFFFFF" transform="translate(0,0)"/>
<path d="" fill="#FFFFFF" transform="translate(0,0)"/>
<path d="" fill="#FFFFFF" transform="translate(0,0)"/>
<path d="" fill="#FFFFFF" transform="translate(0,0)"/>
<path d="" fill="#FFFFFF" transform="translate(0,0)"/>
<path d="" fill="#FFFFFF" transform="translate(0,0)"/>
<path d="" fill="#FFFFFF" transform="translate(0,0)"/>
<path d="" fill="#FFFFFF" transform="translate(0,0)"/>
<path d="" fill="#FFFFFF" transform="translate(0,0)"/>
<path d="" fill="#FFFFFF" transform="translate(0,0)"/>
<path d="" fill="#FFFFFF" transform="translate(0,0)"/>
<path d="" fill="#FFFFFF" transform="translate(0,0)"/>
<path d="" fill="#FFFFFF" transform="translate(0,0)"/>
<path d="" fill="#FFFFFF" transform="translate(0,0)"/>
<path d="" fill="#FFFFFF" transform="translate(0,0)"/>
<path d="" fill="#FFFFFF" transform="translate(0,0)"/>
<path d="" fill="#FFFFFF" transform="translate(0,0)"/>
<path d="" fill="#FFFFFF" transform="translate(0,0)"/>
<path d="" fill="#FFFFFF" transform="translate(0,0)"/>
<path d="" fill="#FFFFFF" transform="translate(0,0)"/>
<path d="" fill="#FFFFFF" transform="translate(0,0)"/>
<path d="" fill="#FFFFFF" transform="translate(0,0)"/>
<path d="" fill="#FFFFFF" transform="translate(0,0)"/>
<path d="" fill="#FFFFFF" transform="translate(0,0)"/>
<path d="" fill="#FFFFFF" transform="translate(0,0)"/>
<path d="" fill="#FFFFFF" transform="translate(0,0)"/>
<path d="" fill="#FFFFFF" transform="translate(0,0)"/>
<path d="" fill="#FFFFFF" transform="translate(0,0)"/>
<path d="" fill="#FFFFFF" transform="translate(0,0)"/>
<path d="" fill="#FFFFFF" transform="translate(0,0)"/>
<path d="" fill="#FFFFFF" transform="translate(0,0)"/>
<path d="" fill="#FFFFFF" transform="translate(0,0)"/>
<path d="" fill="#FFFFFF" transform="translate(0,0)"/>
<path d="" fill="#FFFFFF" transform="translate(0,0)"/>
<path d="" fill="#FFFFFF" transform="translate(0,0)"/>
<path d="" fill="#FFFFFF" transform="translate(0,0)"/>
<path d="" fill="#FFFFFF" transform="translate(0,0)"/>
<path d="" fill="#FFFFFF" transform="translate(0,0)"/>
<path d="" fill="#FFFFFF" transform="translate(0,0)"/>
<path d="" fill="#FFFFFF" transform="translate(0,0)"/>
<path d="" fill="#D4D4D4" transform="translate(0,0)"/>
<path d="" fill="#FFFFFF" transform="translate(0,0)"/>
<path d="" fill="#FFFFFF" transform="translate(0,0)"/>
<path d="" fill="#FFFFFF" transform="translate(0,0)"/>
<path d="" fill="#FFFFFF" transform="translate(0,0)"/>
<path d="" fill="#FFFFFF" transform="translate(0,0)"/>
<path d="" fill="#FFFFFF" transform="translate(0,0)"/>
<path d="" fill="#FFFFFF" transform="translate(0,0)"/>
<path d="" fill="#FFFFFF" transform="translate(0,0)"/>
<path d="" fill="#FFFFFF" transform="translate(0,0)"/>
<path d="" fill="#FFFFFF" transform="translate(0,0)"/>
<path d="" fill="#FFFFFF" transform="translate(0,0)"/>
<path d="" fill="#FFFFFF" transform="translate(0,0)"/>
<path d="" fill="#FFFFFF" transform="translate(0,0)"/>
<path d="" fill="#FFFFFF" transform="translate(0,0)"/>
<path d="" fill="#FFFFFF" transform="translate(0,0)"/>
<path d="" fill="#FFFFFF" transform="translate(0,0)"/>
<path d="" fill="#FFFFFF" transform="translate(0,0)"/>
<path d="" fill="#FFFFFF" transform="translate(0,0)"/>
<path d="" fill="#FFFFFF" transform="translate(0,0)"/>
<path d="" fill="#FFFFFF" transform="translate(0,0)"/>
<path d="" fill="#FFFFFF" transform="translate(0,0)"/>
<path d="" fill="#FFFFFF" transform="translate(0,0)"/>
<path d="" fill="#FFFFFF" transform="translate(0,0)"/>
<path d="" fill="#FFFFFF" transform="translate(0,0)"/>
<path d="" fill="#FFFFFF" transform="translate(0,0)"/>
<path d="" fill="#FFFFFF" transform="translate(0,0)"/>
<path d="" fill="#FFFFFF" transform="translate(0,0)"/>
<path d="" fill="#FFFFFF" transform="translate(0,0)"/>
<path d="" fill="#FFFFFF" transform="translate(0,0)"/>
<path d="" fill="#FFFFFF" transform="translate(0,0)"/>
<path d="" fill="#FFFFFF" transform="translate(0,0)"/>
<path d="" fill="#FFFFFF" transform="translate(0,0)"/>
<path d="" fill="#FFFFFF" transform="translate(0,0)"/>
<path d="" fill="#FFFFFF" transform="translate(0,0)"/>
<path d="" fill="#FFFFFF" transform="translate(0,0)"/>
<path d="" fill="#FFFFFF" transform="translate(0,0)"/>
<path d="" fill="#FFFFFF" transform="translate(0,0)"/>
<path d="" fill="#FFFFFF" transform="translate(0,0)"/>
<path d="" fill="#FFFFFF" transform="translate(0,0)"/>
<path d="" fill="#FFFFFF" transform="translate(0,0)"/>
<path d="" fill="#FFFFFF" transform="translate(0,0)"/>
<path d="" fill="#FFFFFF" transform="translate(0,0)"/>
<path d="" fill="#FFFFFF" transform="translate(0,0)"/>
<path d="" fill="#FFFFFF" transform="translate(0,0)"/>
<path d="" fill="#FFFFFF" transform="translate(0,0)"/>
<path d="" fill="#FFFFFF" transform="translate(0,0)"/>
<path d="" fill="#FFFFFF" transform="translate(0,0)"/>
<path d="" fill="#FFFFFF" transform="translate(0,0)"/>
<path d="" fill="#FFFFFF" transform="translate(0,0)"/>
<path d="" fill="#FFFFFF" transform="translate(0,0)"/>
<path d="" fill="#FFFFFF" transform="translate(0,0)"/>
<path d="" fill="#FFFFFF" transform="translate(0,0)"/>
<path d="" fill="#FFFFFF" transform="translate(0,0)"/>
</svg>
